<?xml version="1.0" encoding="UTF-8"?>
<!DOCTYPE svg PUBLIC "-//W3C//DTD SVG 1.1//EN" "http://www.w3.org/Graphics/SVG/1.1/DTD/svg11.dtd">
<svg width="111mm" height="67mm" viewBox="0 0 11100 6700" version="1.1" xmlns="http://www.w3.org/2000/svg" xmlns:xlink="http://www.w3.org/1999/xlink" stroke-width="28.222" stroke-linejoin="round" xml:space="preserve">
 <path fill="rgb(255,255,255)" stroke="none" d="M 5531,6735 L -13,6735 -13,-13 11075,-13 11075,6735 5531,6735 Z"/>
 <path fill="rgb(0,69,134)" stroke="none" d="M 5531,337 C 5255,337 4980,380 4718,465 4455,551 4207,677 3984,839 3760,1002 3564,1198 3401,1422 3239,1645 3113,1893 3027,2156 2942,2418 2899,2693 2899,2969 2899,3245 2942,3519 3027,3781 3113,4044 3239,4292 3401,4515 3564,4739 3760,4935 3984,5098 4139,5211 4306,5306 4482,5383 L 5531,2969 5531,2969 5531,2969 5531,2969 5531,2969 5531,2969 5531,2969 5531,2969 5531,2969 5531,2969 5531,337 Z"/>
 <path fill="rgb(255,66,14)" stroke="none" d="M 4482,5383 C 4559,5416 4638,5446 4718,5472 4980,5557 5255,5601 5531,5601 5806,5601 6081,5557 6343,5472 6606,5386 6854,5260 7077,5098 7301,4935 7497,4739 7660,4515 7822,4292 7948,4044 8034,3781 8100,3576 8142,3363 8156,3149 L 5531,2969 5531,2969 5531,2969 5531,2969 5531,2969 5531,2969 5531,2969 5531,2969 4482,5383 Z"/>
 <path fill="rgb(255,211,32)" stroke="none" d="M 8156,3149 C 8160,3089 8163,3029 8163,2969 8163,2693 8119,2418 8034,2156 7948,1893 7822,1645 7660,1422 7497,1198 7301,1002 7077,839 6854,677 6606,551 6343,465 6081,380 5806,337 5531,337 L 5531,2969 5531,2969 5531,2969 5531,2969 5531,2969 5531,2969 5531,2969 8156,3149 Z"/>
 <path fill="rgb(0,69,134)" stroke="none" d="M 2792,6540 L 2687,6540 2687,6329 2898,6329 2898,6540 2792,6540 Z"/>
 <path fill="rgb(255,66,14)" stroke="none" d="M 4867,6540 L 4762,6540 4762,6329 4973,6329 4973,6540 4867,6540 Z"/>
 <path fill="rgb(255,211,32)" stroke="none" d="M 6636,6540 L 6530,6540 6530,6329 6741,6329 6741,6540 6636,6540 Z"/>
 <text class="SVGTextShape"><tspan class="TextParagraph"><tspan class="TextPosition" x="2998" y="6554"><tspan font-family="Liberation Sans, sans-serif" font-size="353px" font-weight="400" fill="rgb(0,0,0)" stroke="none" style="white-space: pre">Academia</tspan></tspan></tspan></text>
 <text class="SVGTextShape"><tspan class="TextParagraph"><tspan class="TextPosition" x="5073" y="6554"><tspan font-family="Liberation Sans, sans-serif" font-size="353px" font-weight="400" fill="rgb(0,0,0)" stroke="none" style="white-space: pre">Industry</tspan></tspan></tspan></text>
 <text class="SVGTextShape"><tspan class="TextParagraph"><tspan class="TextPosition" x="6841" y="6554"><tspan font-family="Liberation Sans, sans-serif" font-size="353px" font-weight="400" fill="rgb(0,0,0)" stroke="none" style="white-space: pre">Education</tspan></tspan></tspan></text>
</svg>